<?xml version="1.0" encoding="utf-8"?>
<!-- Generator: Adobe Illustrator 23.0.1, SVG Export Plug-In . SVG Version: 6.00 Build 0)  -->
<svg version="1.1" id="Layer_1" xmlns="http://www.w3.org/2000/svg" xmlns:xlink="http://www.w3.org/1999/xlink" x="0px" y="0px"
	 viewBox="0 0 365.15 98.44" style="enable-background:new 0 0 365.15 98.44;" xml:space="preserve">
<g>
	<path d="M9.39,11.6c0-0.67-1.88-2.46-2.5-2.46H5.28l0-1.61h9.47l9.74,24.52h0.22L34.98,7.54h8.48l0,1.61h-1.61
		c-0.62,0-2.5,1.79-2.5,2.46l0,24.38c0,0.67,1.88,2.46,2.5,2.46h1.61l0,1.61H30.87l0-1.61h1.61c0.63,0,2.5-1.79,2.5-2.46l0-23.67
		L23.14,40.63l-11.83-28.8l0,24.16c0,0.67,1.88,2.46,2.5,2.46h1.61l0,1.61H5.28l0-1.61h1.61c0.63,0,2.5-1.79,2.5-2.46L9.39,11.6z"/>
	<path d="M57.15,26.16c0.58-3.26,0.05-6.21-3.57-6.21c-4.2,0-6.25,3.35-6.25,8.31c0,4.69,2.99,8.57,7.81,8.57
		c3.66,0,5.22-1.29,6.7-3.75h1.29c-1.39,4.6-4.2,7.5-9.47,7.5c-5.85,0-9.65-5-9.65-10.99c0-6.79,4.51-11.25,10.05-11.25
		c3.3,0,5.54,1.03,7.46,2.95l-3.08,4.78L57.15,26.16z"/>
	<path d="M99.66,13.97c1.56,0,2.73-1.07,2.73-2.72c0-1.65-1.16-2.68-2.73-2.68c-1.56,0-2.77,1.03-2.77,2.68
		C96.89,12.9,98.09,13.97,99.66,13.97"/>
	<path d="M129.58,38.44c-0.62,0-2.32-1.52-2.32-2.23l0-11.74c0-3.62-2.59-6.03-5.85-6.03c-3.8,0-5.76,2.19-8.31,4.78l-0.8-4.33
		h-6.65v1.61h1.29c0.63,0,2.32,1.56,2.32,2.23l0,13.49c0,0.71-1.7,2.23-2.32,2.23h-1.29h-1.3c-0.58,0-2.32-1.52-2.32-2.23l0-17.33
		h-7.55v1.61h1.3c0.62,0,2.32,1.56,2.32,2.23l0,13.49c0,0.71-1.7,2.23-2.32,2.23h-1.3h-1.07c-0.67,0-3.31-2.01-3.84-2.72
		L78.18,20.58l7.9-8.48c0.45-0.49,3.53-2.95,4.15-2.95h1.56V7.54H80.01v1.61h1.56c0.62,0,2.46,2.23,1.97,2.81L71.93,24.91l0-13.31
		c0-0.67,1.88-2.46,2.5-2.46h1.61V7.54H63.35l0,1.61h1.61c0.62,0,2.5,1.79,2.5,2.46l0,24.38c0,0.67-1.88,2.46-2.5,2.46h-1.61l0,1.61
		h12.68v-1.61h-1.61c-0.63,0-2.5-1.79-2.5-2.46l0-8.62l3.3-3.57l11.25,16.26h7.99h11.16h11.03l0-1.61h-1.2
		c-0.62,0-2.32-1.52-2.32-2.23l0-10.76c0-1.43,3.88-4.38,6.88-4.38c2.28,0,3.35,1.56,3.35,3.62l0,11.52c0,0.71-1.7,2.23-2.32,2.23
		h-1.21v1.61h10.81v-1.61H129.58z"/>
	<path d="M133.5,32.63c0,1.97,2.86,6.21,7.41,6.21c2.63,0,4.11-0.94,4.11-2.9c0-2.37-2.1-3.17-3.97-3.97
		c-1.47-0.63-2.68-1.12-4.38-1.88c-2.55-1.16-4.47-2.86-4.47-5.76c0-3.8,2.28-5.98,6.34-5.98c2.32,0,3.62,1.12,5.23,1.12
		c0.62,0,0.98-0.13,1.16-0.58h1.16l0,6.52h-1.3c0-1.74-2.46-5.45-6.39-5.45c-2.46,0-3.62,1.07-3.62,2.81c0,1.83,1.25,2.5,3.44,3.44
		c1.61,0.67,2.81,1.2,4.56,1.88c2.28,0.89,4.87,2.72,4.87,6.12c0,4.02-2.77,6.38-6.74,6.38c-2.68,0-4.24-1.25-6.07-1.25
		c-0.85,0-1.07,0.22-1.61,0.71h-1.03l0-7.41H133.5z"/>
	<path d="M148.96,29.46c0-6.25,4.24-11.12,9.69-11.08c4.78,0.04,7.46,3.31,7.68,7.41l0.09,1.52l-14.07,1.12
		c0,4.24,2.95,8.44,7.73,8.44c3.62,0,5.27-1.39,6.56-3.8h1.3c-1.38,4.6-4.02,7.46-9.2,7.46C152.84,40.54,148.96,35.4,148.96,29.46
		 M162.8,26.03c0.36-2.99-0.13-6.03-4.24-6.03c-4.38,0-6.12,3.62-6.25,6.92L162.8,26.03z"/>
	<path d="M170.03,22.9c-0.31-0.71-2.19-2.41-2.73-2.41h-0.94v-1.61h11.21v1.61h-1.3c-0.58,0-1.88,1.47-1.88,2.28l4.91,11.3
		l4.82-11.25c0.04-0.85-1.25-2.32-1.83-2.32h-1.29v-1.61h8.44v1.61h-0.98c-0.49,0-2.01,1.61-2.46,2.32l-7.19,16.21l-5.32,11.7
		l-1.92-0.89l5.63-11.52L170.03,22.9z"/>
	<path d="M86.58,77.26c0-0.62-1.91-2.63-2.32-2.63h-3.12V72.9h13.71v1.65h-1.69c-0.4,0-2.14,1.96-2.14,2.58l0,10.46h-0.18
		l-3.38-4.27c-1.78,3.38-4.54,4.63-8.55,4.63c-9.3,0-15.54-7.61-15.54-16.87c0-9.26,5.74-16.65,14.83-16.65
		c3.47,0,5.88,1.43,8.41,1.43c1.02,0,1.51-0.27,2-0.85h1.2l0,11.09h-1.38c0-3.03-3.79-9.71-10.11-9.71c-5.61,0-9.22,3.25-9.8,10.42
		c-0.22,2.85-0.18,5.39,0.09,8.24c0.49,5.65,4.28,10.46,10.86,10.46c5.08,0,7.08-2.58,7.08-4.9L86.58,77.26z"/>
	<path d="M104.13,53.09l0,30.5c0,0.71,1.74,2.23,2.32,2.23h1.29v1.6H96.6v-1.6h1.29c0.62,0,2.32-1.51,2.32-2.23l0-24.76
		c0-0.67-1.69-2.23-2.32-2.23H96.6V55L104.13,53.09z"/>
	<path d="M109.11,76.86c0-6.81,4.9-11.09,10.46-11.09c5.57,0,10.46,4.28,10.46,11.09c0,6.81-4.9,11.13-10.46,11.13
		C114.01,87.99,109.11,83.68,109.11,76.86 M125.81,80.38c0.27-2.14,0.27-5.03,0-7.17c-0.4-3.38-2.27-5.65-6.19-5.65
		c-3.78,0-5.7,2.27-6.19,5.61c-0.31,2.05-0.31,5.08,0,7.17c0.49,3.25,2.31,5.66,6.19,5.66C123.59,85.99,125.41,83.68,125.81,80.38"
		/>
	<path d="M137.7,70.63c1.83-3.38,4.19-4.85,7.66-4.85c5.12,0,8.19,4.32,8.19,10.78c0,6.41-3.83,11.31-8.99,11.31
		c-3.79,0-5.57-1.52-7.04-4.1l-3.56,3.92h-0.18l0-28.9c0-0.67-1.69-2.23-2.32-2.23h-1.29V55l7.52-1.91L137.7,70.63z M137.7,74.01
		l0,4.9c0,3.7,2.36,6.81,5.92,6.81c3.69,0,5.43-2.36,5.88-5.7c0.27-2,0.31-4.32,0.04-6.28c-0.45-3.34-2.27-5.48-5.3-5.48
		C140.69,68.27,138.77,70.72,137.7,74.01"/>
	<path d="M169.5,87.41l-0.54-4.23c-1.69,2.18-3.92,4.63-7.03,4.63c-2.9,0-5.34-2.32-5.34-5.74c0-4.19,3.83-5.65,6.81-6.28l5.43-1.11
		l0.04-2.63c0.05-2.98-1.16-4.68-4.94-4.68c-3.61,0-4.76,2.32-3.21,5.92h-1.51l-2.8-4.23c1.74-1.78,4.19-3.25,8.46-3.25
		c4.54,0,7.88,2.14,7.88,6.28l0,11.49c0,0.71,1.74,2.23,2.32,2.23h1.25v1.6H169.5z M168.87,76.06l-5.03,1.29
		c-2.63,0.67-3.52,2.09-3.52,4.18c0,1.82,1.29,3.38,3.38,3.38c2.05,0,4.28-2.14,5.16-3.69L168.87,76.06z"/>
	<path d="M183.74,53.09l0,30.5c0,0.71,1.74,2.23,2.31,2.23h1.29v1.6h-11.13v-1.6h1.29c0.63,0,2.32-1.51,2.32-2.23l0-24.76
		c0-0.67-1.69-2.23-2.32-2.23h-1.29V55L183.74,53.09z"/>
	<path d="M204.48,59.05c0-0.67-1.87-2.45-2.49-2.45h-1.69V55h12.82v1.6h-1.69c-0.62,0-2.49,1.78-2.49,2.45l0,24.31
		c0,0.67,1.87,2.45,2.49,2.45h1.69l0,1.6h-12.82v-1.6h1.69c0.62,0,2.49-1.78,2.49-2.45L204.48,59.05z"/>
	<path d="M234.64,83.59c0,0.71,1.69,2.23,2.31,2.23h1.07v1.6h-10.78v-1.6h1.2c0.62,0,2.32-1.51,2.32-2.23l0-11.49
		c0-2.05-1.07-3.61-3.34-3.61c-2.98,0-6.86,2.94-6.86,4.36l0,10.73c0,0.71,1.69,2.23,2.32,2.23h1.2v1.6h-11v-1.6h1.29
		c0.62,0,2.31-1.51,2.31-2.23l0-13.45c0-0.67-1.69-2.22-2.31-2.22h-1.29v-1.6h6.64l0.8,4.32c2.54-2.58,4.5-4.76,8.28-4.76
		c3.25,0,5.83,2.4,5.83,6.01L234.64,83.59z"/>
	<path d="M241.9,80.02c0,1.96,2.85,6.19,7.39,6.19c2.63,0,4.1-0.93,4.1-2.89c0-2.36-2.09-3.16-3.96-3.96
		c-1.47-0.62-2.67-1.11-4.36-1.87c-2.54-1.16-4.45-2.85-4.45-5.74c0-3.78,2.27-5.97,6.32-5.97c2.32,0,3.61,1.11,5.21,1.11
		c0.62,0,0.98-0.13,1.16-0.58h1.16l0,6.5h-1.29c0-1.74-2.45-5.43-6.37-5.43c-2.45,0-3.61,1.07-3.61,2.8c0,1.82,1.25,2.49,3.43,3.43
		c1.6,0.67,2.8,1.2,4.54,1.87c2.27,0.89,4.85,2.71,4.85,6.1c0,4.01-2.76,6.37-6.72,6.37c-2.67,0-4.23-1.25-6.05-1.25
		c-0.85,0-1.07,0.22-1.6,0.71h-1.02l0-7.39H241.9z"/>
	<path d="M271.82,84.7c-0.94,1.02-3.87,3.21-6.14,3.21c-2.36,0-4.5-1.74-4.5-4.9l0-14.74h-3.74v-1.34c2.63-2.14,4.19-3.61,6.23-6.14
		h1.29l0,5.52h6.19v1.96h-6.06l0,14.07c0,1.56,0.89,2.58,2.72,2.58c1.07,0,2.58-0.85,3.25-1.34L271.82,84.7z"/>
	<path d="M281.4,66.31l0,17.27c0,0.71,1.74,2.23,2.32,2.23H285v1.6h-11.13v-1.6h1.29c0.62,0,2.31-1.51,2.31-2.23l0-13.45
		c0-0.67-1.69-2.23-2.31-2.23h-1.29v-1.6H281.4z M279.04,56.02c1.56,0,2.72,1.02,2.72,2.67c0,1.65-1.16,2.71-2.72,2.71
		c-1.56,0-2.76-1.07-2.76-2.71C276.28,57.05,277.48,56.02,279.04,56.02"/>
	<path d="M299.12,84.7c-0.94,1.02-3.87,3.21-6.14,3.21c-2.36,0-4.5-1.74-4.5-4.9l0-14.74h-3.74v-1.34c2.63-2.14,4.19-3.61,6.23-6.14
		h1.29v5.52h6.19v1.96h-6.06l0,14.07c0,1.56,0.89,2.58,2.72,2.58c1.07,0,2.58-0.85,3.25-1.34L299.12,84.7z"/>
	<path d="M322.23,83.59c0,0.67,1.69,2.23,2.32,2.23h1.29v1.6h-6.63l-0.8-4.5c-2.36,2.71-4.54,4.99-8.24,4.99
		c-3.25,0-5.83-2.54-5.83-6.14l0-11.62c0-0.71-1.69-2.22-2.32-2.22h-1.07v-1.6h7.26l0,15.32c0,2.09,1.07,3.61,3.34,3.61
		c3.38,0,6.81-3.43,6.81-4.85l0-10.24c0-0.71-1.69-2.22-2.32-2.22h-1.2l0-1.6h7.39L322.23,83.59z"/>
	<path d="M340.26,84.7c-0.94,1.02-3.87,3.21-6.14,3.21c-2.36,0-4.5-1.74-4.5-4.9l0-14.74h-3.74v-1.34c2.63-2.14,4.19-3.61,6.23-6.14
		h1.29v5.52h6.19v1.96h-6.06l0,14.07c0,1.56,0.89,2.58,2.72,2.58c1.07,0,2.58-0.85,3.25-1.34L340.26,84.7z"/>
	<path d="M341.64,76.86c0-6.23,4.23-11.09,9.66-11.04c4.76,0.05,7.44,3.3,7.66,7.39l0.09,1.51l-14.03,1.11
		c0,4.23,2.94,8.42,7.7,8.42c3.61,0,5.25-1.38,6.55-3.79h1.29c-1.38,4.59-4.01,7.44-9.17,7.44
		C345.52,87.9,341.64,82.78,341.64,76.86 M355.45,73.43c0.36-2.98-0.13-6.01-4.23-6.01c-4.36,0-6.1,3.61-6.23,6.9L355.45,73.43z"/>
</g>
</svg>
